<svg width="24" height="25" viewBox="0 0 24 25" fill="none" xmlns="http://www.w3.org/2000/svg">
<path d="M10.5895 13.9617C10.9995 14.3517 10.9995 14.9917 10.5895 15.3817C10.1995 15.7717 9.55953 15.7717 9.16953 15.3817C8.23291 14.4437 7.70684 13.1723 7.70684 11.8467C7.70684 10.5212 8.23291 9.24977 9.16953 8.31174L12.7095 4.77174C13.6476 3.83512 14.919 3.30905 16.2445 3.30905C17.5701 3.30905 18.8415 3.83512 19.7795 4.77174C20.7161 5.70977 21.2422 6.98117 21.2422 8.30674C21.2422 9.63232 20.7161 10.9037 19.7795 11.8417L18.2895 13.3317C18.2995 12.5117 18.1695 11.6917 17.8895 10.9117L18.3595 10.4317C18.6399 10.1544 18.8624 9.82427 19.0143 9.46037C19.1662 9.09648 19.2444 8.70607 19.2444 8.31174C19.2444 7.91742 19.1662 7.52701 19.0143 7.16311C18.8624 6.79922 18.6399 6.46906 18.3595 6.19174C18.0822 5.91141 17.7521 5.68885 17.3882 5.53696C17.0243 5.38507 16.6339 5.30687 16.2395 5.30687C15.8452 5.30687 15.4548 5.38507 15.0909 5.53696C14.727 5.68885 14.3968 5.91141 14.1195 6.19174L10.5895 9.72174C10.3092 9.99906 10.0866 10.3292 9.93475 10.6931C9.78286 11.057 9.70465 11.4474 9.70465 11.8417C9.70465 12.2361 9.78286 12.6265 9.93475 12.9904C10.0866 13.3543 10.3092 13.6844 10.5895 13.9617ZM13.4095 9.72174C13.7995 9.33174 14.4395 9.33174 14.8295 9.72174C15.7661 10.6598 16.2922 11.9312 16.2922 13.2567C16.2922 14.5823 15.7661 15.8537 14.8295 16.7917L11.2895 20.3317C10.3515 21.2684 9.0801 21.7944 7.75453 21.7944C6.42895 21.7944 5.15756 21.2684 4.21953 20.3317C3.28291 19.3937 2.75684 18.1223 2.75684 16.7967C2.75684 15.4712 3.28291 14.1998 4.21953 13.2617L5.70953 11.7717C5.69953 12.5917 5.82953 13.4117 6.10953 14.2017L5.63953 14.6717C5.35919 14.9491 5.13664 15.2792 4.98475 15.6431C4.83286 16.007 4.75465 16.3974 4.75465 16.7917C4.75465 17.1861 4.83286 17.5765 4.98475 17.9404C5.13664 18.3043 5.35919 18.6344 5.63953 18.9117C5.91684 19.1921 6.247 19.4146 6.6109 19.5665C6.97479 19.7184 7.3652 19.7966 7.75953 19.7966C8.15385 19.7966 8.54426 19.7184 8.90816 19.5665C9.27206 19.4146 9.60221 19.1921 9.87953 18.9117L13.4095 15.3817C13.6899 15.1044 13.9124 14.7743 14.0643 14.4104C14.2162 14.0465 14.2944 13.6561 14.2944 13.2617C14.2944 12.8674 14.2162 12.477 14.0643 12.1131C13.9124 11.7492 13.6899 11.4191 13.4095 11.1417C13.3124 11.0507 13.235 10.9408 13.1821 10.8186C13.1291 10.6965 13.1018 10.5648 13.1018 10.4317C13.1018 10.2986 13.1291 10.167 13.1821 10.0448C13.235 9.92272 13.3124 9.81275 13.4095 9.72174Z" fill="#BFBFBF"/>
</svg>
