<svg width="16" height="16" viewBox="0 0 16 16" fill="none" xmlns="http://www.w3.org/2000/svg">
<path d="M7.05969 8.93999C7.33302 9.19999 7.33302 9.62666 7.05969 9.88666C6.79969 10.1467 6.37302 10.1467 6.11302 9.88666C5.4886 9.2613 5.13789 8.41371 5.13789 7.52999C5.13789 6.64627 5.4886 5.79868 6.11302 5.17332L8.47302 2.81332C9.09837 2.18891 9.94597 1.8382 10.8297 1.8382C11.7134 1.8382 12.561 2.18891 13.1864 2.81332C13.8108 3.43868 14.1615 4.28627 14.1615 5.16999C14.1615 6.05371 13.8108 6.90131 13.1864 7.52666L12.193 8.51999C12.1997 7.97332 12.113 7.42666 11.9264 6.90666L12.2397 6.58666C12.4266 6.40178 12.5749 6.18168 12.6762 5.93908C12.7775 5.69648 12.8296 5.43621 12.8296 5.17332C12.8296 4.91044 12.7775 4.65017 12.6762 4.40757C12.5749 4.16497 12.4266 3.94487 12.2397 3.75999C12.0548 3.5731 11.8347 3.42473 11.5921 3.32347C11.3495 3.22221 11.0892 3.17007 10.8264 3.17007C10.5635 3.17007 10.3032 3.22221 10.0606 3.32347C9.818 3.42473 9.59789 3.5731 9.41302 3.75999L7.05969 6.11332C6.87279 6.2982 6.72442 6.51831 6.62317 6.7609C6.52191 7.0035 6.46977 7.26377 6.46977 7.52666C6.46977 7.78954 6.52191 8.04981 6.62317 8.29241C6.72442 8.53501 6.87279 8.75512 7.05969 8.93999ZM8.93968 6.11332C9.19968 5.85332 9.62635 5.85332 9.88635 6.11332C10.5108 6.73868 10.8615 7.58627 10.8615 8.46999C10.8615 9.35371 10.5108 10.2013 9.88635 10.8267L7.52635 13.1867C6.901 13.8111 6.0534 14.1618 5.16969 14.1618C4.28597 14.1618 3.43837 13.8111 2.81302 13.1867C2.1886 12.5613 1.83789 11.7137 1.83789 10.83C1.83789 9.94627 2.1886 9.09868 2.81302 8.47332L3.80635 7.47999C3.79969 8.02666 3.88635 8.57332 4.07302 9.09999L3.75968 9.41332C3.57279 9.5982 3.42442 9.81831 3.32316 10.0609C3.22191 10.3035 3.16977 10.5638 3.16977 10.8267C3.16977 11.0895 3.22191 11.3498 3.32316 11.5924C3.42442 11.835 3.57279 12.0551 3.75968 12.24C3.94456 12.4269 4.16467 12.5753 4.40726 12.6765C4.64986 12.7778 4.91014 12.8299 5.17302 12.8299C5.4359 12.8299 5.69617 12.7778 5.93877 12.6765C6.18137 12.5753 6.40148 12.4269 6.58635 12.24L8.93968 9.88666C9.12658 9.70178 9.27495 9.48168 9.37621 9.23908C9.47747 8.99648 9.5296 8.73621 9.5296 8.47332C9.5296 8.21044 9.47747 7.95017 9.37621 7.70757C9.27495 7.46497 9.12658 7.24487 8.93968 7.05999C8.87494 6.99932 8.82333 6.92601 8.78804 6.84459C8.75276 6.76318 8.73455 6.67539 8.73455 6.58666C8.73455 6.49793 8.75276 6.41014 8.78804 6.32872C8.82333 6.24731 8.87494 6.174 8.93968 6.11332Z" fill="#1252DE"/>
</svg>
