<svg width="17" height="16" viewBox="0 0 17 16" fill="none" xmlns="http://www.w3.org/2000/svg">
<g id="gridicons:external">
<path id="Vector" d="M13.1667 8.66667V12.6667C13.1667 13.0203 13.0262 13.3594 12.7761 13.6095C12.5261 13.8595 12.187 14 11.8333 14H3.83333C3.47971 14 3.14057 13.8595 2.89052 13.6095C2.64048 13.3594 2.5 13.0203 2.5 12.6667V4.66667C2.5 4.31304 2.64048 3.97391 2.89052 3.72386C3.14057 3.47381 3.47971 3.33333 3.83333 3.33333H7.83333V4.66667H3.83333V12.6667H11.8333V8.66667H13.1667ZM9.16667 2V3.33333H12.224L7.02867 8.52867L7.97133 9.47133L13.1667 4.276V7.33333H14.5V2H9.16667Z" fill="#1252DE"/>
</g>
</svg>
