<svg width="16" height="16" viewBox="0 0 16 16" fill="none" xmlns="http://www.w3.org/2000/svg">
<path d="M9.46732 1.91666C8.64957 1.91666 7.86531 2.24151 7.28707 2.81974C6.70883 3.39798 6.38398 4.18224 6.38398 4.99999V6.71666H4.73398C4.65132 6.71666 4.58398 6.78332 4.58398 6.86666V9.13332C4.58398 9.21599 4.65065 9.28332 4.73398 9.28332H6.38398V13.9333C6.38398 14.016 6.45065 14.0833 6.53398 14.0833H8.80065C8.88332 14.0833 8.95065 14.0167 8.95065 13.9333V9.28332H10.6153C10.684 9.28332 10.744 9.23666 10.7607 9.16999L11.3273 6.90332C11.3329 6.8812 11.3334 6.85811 11.3287 6.83578C11.324 6.81346 11.3142 6.79251 11.3002 6.77451C11.2862 6.75651 11.2683 6.74194 11.2478 6.73192C11.2273 6.72189 11.2048 6.71667 11.182 6.71666H8.95065V4.99999C8.95065 4.93214 8.96402 4.86495 8.98998 4.80227C9.01594 4.73959 9.054 4.68263 9.10198 4.63465C9.14996 4.58667 9.20691 4.54862 9.2696 4.52265C9.33228 4.49669 9.39947 4.48332 9.46732 4.48332H11.2007C11.2833 4.48332 11.3507 4.41666 11.3507 4.33332V2.06666C11.3507 1.98399 11.284 1.91666 11.2007 1.91666H9.46732Z" fill="#1252DE"/>
</svg>
