<svg width="16" height="16" viewBox="0 0 16 16" fill="none" xmlns="http://www.w3.org/2000/svg">
<path d="M12 14.6667C11.4444 14.6667 10.9722 14.4722 10.5833 14.0833C10.1944 13.6945 10 13.2222 10 12.6667C10 12.5889 10.0056 12.5082 10.0167 12.4247C10.0278 12.3411 10.0444 12.2662 10.0667 12.2L5.36667 9.46668C5.17778 9.63334 4.96667 9.76401 4.73333 9.85868C4.5 9.95334 4.25556 10.0005 4 10C3.44444 10 2.97222 9.80556 2.58333 9.41668C2.19444 9.02779 2 8.55557 2 8.00001C2 7.44445 2.19444 6.97223 2.58333 6.58334C2.97222 6.19445 3.44444 6.00001 4 6.00001C4.25556 6.00001 4.5 6.04734 4.73333 6.14201C4.96667 6.23668 5.17778 6.36712 5.36667 6.53334L10.0667 3.80001C10.0444 3.73334 10.0278 3.65845 10.0167 3.57534C10.0056 3.49223 10 3.41157 10 3.33334C10 2.77779 10.1944 2.30557 10.5833 1.91668C10.9722 1.52779 11.4444 1.33334 12 1.33334C12.5556 1.33334 13.0278 1.52779 13.4167 1.91668C13.8056 2.30557 14 2.77779 14 3.33334C14 3.8889 13.8056 4.36112 13.4167 4.75001C13.0278 5.1389 12.5556 5.33334 12 5.33334C11.7444 5.33334 11.5 5.28623 11.2667 5.19201C11.0333 5.09779 10.8222 4.96712 10.6333 4.80001L5.93333 7.53334C5.95556 7.60001 5.97222 7.67512 5.98333 7.75868C5.99444 7.84223 6 7.92268 6 8.00001C6 8.07779 5.99444 8.15845 5.98333 8.24201C5.97222 8.32557 5.95556 8.40045 5.93333 8.46668L10.6333 11.2C10.8222 11.0333 11.0333 10.9029 11.2667 10.8087C11.5 10.7145 11.7444 10.6671 12 10.6667C12.5556 10.6667 13.0278 10.8611 13.4167 11.25C13.8056 11.6389 14 12.1111 14 12.6667C14 13.2222 13.8056 13.6945 13.4167 14.0833C13.0278 14.4722 12.5556 14.6667 12 14.6667Z" fill="#1252DE"/>
</svg>
