<svg width="17" height="17" viewBox="0 0 17 17" fill="none" xmlns="http://www.w3.org/2000/svg">
<g id="bi:stars" clip-path="url(#clip0_1899_48419)">
<path id="Vector" d="M8.15681 6.747C8.26681 6.417 8.73281 6.417 8.84281 6.747L9.48781 8.684C9.62978 9.1098 9.86898 9.49668 10.1865 9.81398C10.5039 10.1313 10.8909 10.3703 11.3168 10.512L13.2528 11.157C13.5828 11.267 13.5828 11.733 13.2528 11.843L11.3158 12.488C10.89 12.63 10.5031 12.8692 10.1858 13.1866C9.86854 13.5041 9.62955 13.8911 9.48781 14.317L8.84281 16.253C8.8191 16.3253 8.77316 16.3882 8.71157 16.4328C8.64997 16.4774 8.57586 16.5014 8.49981 16.5014C8.42376 16.5014 8.34965 16.4774 8.28805 16.4328C8.22646 16.3882 8.18053 16.3253 8.15681 16.253L7.51181 14.316C7.36994 13.8903 7.13089 13.5035 6.8136 13.1862C6.49632 12.8689 6.1095 12.6299 5.68381 12.488L3.74681 11.843C3.67455 11.8193 3.61162 11.7734 3.56701 11.7118C3.5224 11.6502 3.49838 11.5761 3.49838 11.5C3.49838 11.4239 3.5224 11.3498 3.56701 11.2882C3.61162 11.2266 3.67455 11.1807 3.74681 11.157L5.68381 10.512C6.1095 10.3701 6.49632 10.1311 6.8136 9.81379C7.13089 9.4965 7.36994 9.10969 7.51181 8.684L8.15681 6.747ZM4.29381 1.648C4.30815 1.60469 4.33577 1.56701 4.37275 1.5403C4.40973 1.51359 4.45419 1.49921 4.49981 1.49921C4.54543 1.49921 4.58989 1.51359 4.62687 1.5403C4.66385 1.56701 4.69147 1.60469 4.70581 1.648L5.09281 2.81C5.26581 3.328 5.67181 3.734 6.18981 3.907L7.35181 4.294C7.39512 4.30834 7.4328 4.33596 7.45951 4.37294C7.48622 4.40992 7.5006 4.45438 7.5006 4.5C7.5006 4.54562 7.48622 4.59007 7.45951 4.62705C7.4328 4.66404 7.39512 4.69166 7.35181 4.706L6.18981 5.093C5.93434 5.17811 5.7022 5.32156 5.51179 5.51197C5.32137 5.70238 5.17793 5.93452 5.09281 6.19L4.70581 7.352C4.69147 7.3953 4.66385 7.43299 4.62687 7.4597C4.58989 7.48641 4.54543 7.50079 4.49981 7.50079C4.45419 7.50079 4.40973 7.48641 4.37275 7.4597C4.33577 7.43299 4.30815 7.3953 4.29381 7.352L3.90681 6.19C3.82169 5.93452 3.67825 5.70238 3.48784 5.51197C3.29743 5.32156 3.06529 5.17811 2.80981 5.093L1.64781 4.706C1.6045 4.69166 1.56682 4.66404 1.54011 4.62705C1.5134 4.59007 1.49902 4.54562 1.49902 4.5C1.49902 4.45438 1.5134 4.40992 1.54011 4.37294C1.56682 4.33596 1.6045 4.30834 1.64781 4.294L2.80981 3.907C3.06529 3.82188 3.29743 3.67843 3.48784 3.48802C3.67825 3.29761 3.82169 3.06547 3.90681 2.81L4.29381 1.648ZM11.3628 0.598998C11.3727 0.570524 11.3912 0.545834 11.4157 0.52836C11.4403 0.510885 11.4697 0.501495 11.4998 0.501495C11.5299 0.501495 11.5593 0.510885 11.5839 0.52836C11.6084 0.545834 11.6269 0.570524 11.6368 0.598998L11.8948 1.373C12.0098 1.719 12.2808 1.99 12.6268 2.105L13.4008 2.363C13.4293 2.37287 13.454 2.39137 13.4714 2.41592C13.4889 2.44047 13.4983 2.46986 13.4983 2.5C13.4983 2.53013 13.4889 2.55952 13.4714 2.58407C13.454 2.60863 13.4293 2.62713 13.4008 2.637L12.6268 2.895C12.4563 2.95172 12.3014 3.04741 12.1743 3.17448C12.0472 3.30155 11.9515 3.45649 11.8948 3.627L11.6368 4.401C11.6269 4.42947 11.6084 4.45416 11.5839 4.47164C11.5593 4.48911 11.5299 4.4985 11.4998 4.4985C11.4697 4.4985 11.4403 4.48911 11.4157 4.47164C11.3912 4.45416 11.3727 4.42947 11.3628 4.401L11.1048 3.627C11.0481 3.45649 10.9524 3.30155 10.8253 3.17448C10.6983 3.04741 10.5433 2.95172 10.3728 2.895L9.59981 2.637C9.57134 2.62713 9.54665 2.60863 9.52917 2.58407C9.5117 2.55952 9.50231 2.53013 9.50231 2.5C9.50231 2.46986 9.5117 2.44047 9.52917 2.41592C9.54665 2.39137 9.57134 2.37287 9.59981 2.363L10.3738 2.105C10.7198 1.99 10.9908 1.719 11.1058 1.373L11.3628 0.599998V0.598998Z" fill="#F0BA00"/>
</g>
<defs>
<clipPath id="clip0_1899_48419">
<rect width="16" height="16" fill="white" transform="translate(0.5 0.5)"/>
</clipPath>
</defs>
</svg>
