<svg width="24" height="25" viewBox="0 0 24 25" fill="none" xmlns="http://www.w3.org/2000/svg">
<path d="M22.46 6.55176C21.69 6.90176 20.86 7.13176 20 7.24176C20.88 6.71176 21.56 5.87176 21.88 4.86176C21.05 5.36176 20.13 5.71176 19.16 5.91176C18.37 5.05176 17.26 4.55176 16 4.55176C13.65 4.55176 11.73 6.47176 11.73 8.84176C11.73 9.18176 11.77 9.51176 11.84 9.82176C8.28004 9.64176 5.11004 7.93176 3.00004 5.34176C2.63004 5.97176 2.42004 6.71176 2.42004 7.49176C2.42004 8.98176 3.17004 10.3018 4.33004 11.0518C3.62004 11.0518 2.96004 10.8518 2.38004 10.5518V10.5818C2.38004 12.6618 3.86004 14.4018 5.82004 14.7918C5.19077 14.964 4.53013 14.9879 3.89004 14.8618C4.16165 15.7142 4.69358 16.4602 5.41106 16.9947C6.12854 17.5292 6.99549 17.8254 7.89004 17.8418C6.37367 19.0422 4.49404 19.6911 2.56004 19.6818C2.22004 19.6818 1.88004 19.6618 1.54004 19.6218C3.44004 20.8418 5.70004 21.5518 8.12004 21.5518C16 21.5518 20.33 15.0118 20.33 9.34176C20.33 9.15176 20.33 8.97176 20.32 8.78176C21.16 8.18176 21.88 7.42176 22.46 6.55176Z" fill="#BFBFBF"/>
</svg>
