<svg width="16" height="16" viewBox="0 0 16 16" fill="none" xmlns="http://www.w3.org/2000/svg">
<path d="M14.973 3.99999C14.4597 4.23332 13.9064 4.38666 13.333 4.45999C13.9197 4.10666 14.373 3.54666 14.5864 2.87332C14.033 3.20666 13.4197 3.43999 12.773 3.57332C12.2464 2.99999 11.5064 2.66666 10.6664 2.66666C9.0997 2.66666 7.8197 3.94666 7.8197 5.52666C7.8197 5.75332 7.84637 5.97332 7.89303 6.17999C5.5197 6.05999 3.40637 4.91999 1.9997 3.19332C1.75303 3.61332 1.61303 4.10666 1.61303 4.62666C1.61303 5.61999 2.11303 6.49999 2.88637 6.99999C2.41303 6.99999 1.97303 6.86666 1.58637 6.66666V6.68666C1.58637 8.07332 2.57303 9.23332 3.8797 9.49332C3.46019 9.60813 3.01976 9.6241 2.59303 9.53999C2.7741 10.1083 3.12873 10.6056 3.60704 10.9619C4.08536 11.3183 4.66333 11.5158 5.2597 11.5267C4.24879 12.3269 2.9957 12.7595 1.70637 12.7533C1.4797 12.7533 1.25303 12.74 1.02637 12.7133C2.29303 13.5267 3.7997 14 5.41303 14C10.6664 14 13.553 9.63999 13.553 5.85999C13.553 5.73332 13.553 5.61332 13.5464 5.48666C14.1064 5.08666 14.5864 4.57999 14.973 3.99999Z" fill="#1252DE"/>
</svg>
