<svg width="21" height="20" viewBox="0 0 21 20" fill="none" xmlns="http://www.w3.org/2000/svg">
<g id="WifiHigh">
<path id="Vector" d="M4.80278 11.5073C5.82466 11.5284 6.7988 11.9438 7.52154 12.6666C8.24427 13.3893 8.65965 14.3634 8.68082 15.3853" stroke="#84D022" stroke-linecap="round" stroke-linejoin="round"/>
<path id="Vector_2" d="M4.8083 7.75639C6.8225 7.7811 8.74725 8.59222 10.1716 10.0166C11.596 11.4409 12.4071 13.3657 12.4318 15.3799" stroke="#84D022" stroke-linecap="round" stroke-linejoin="round"/>
<path id="Vector_3" d="M4.80843 4.01103C7.81686 4.03306 10.6958 5.23793 12.8231 7.36526C14.9505 9.4926 16.1554 12.3716 16.1774 15.38" stroke="#84D022" stroke-linecap="round" stroke-linejoin="round"/>
<path id="Vector_4" d="M4.4272 15.7611C4.67128 16.0051 5.067 16.0051 5.31108 15.7611C5.55516 15.517 5.55516 15.1213 5.31108 14.8772C5.067 14.6331 4.67128 14.6331 4.4272 14.8772C4.18312 15.1213 4.18312 15.517 4.4272 15.7611Z" fill="#84D022"/>
</g>
</svg>
