<svg width="74" height="45" viewBox="0 0 74 45" fill="none" xmlns="http://www.w3.org/2000/svg">
<rect x="0.5" width="73" height="45" rx="1" fill="#1252DE"/>
<path d="M8.93889 40.595H5.69676V5.13421H9.54678C12.772 5.13421 14.2073 6.56952 14.2073 9.81165V19.2679C14.2073 21.4799 13.1773 22.51 11.4043 22.8984V23.4049C13.1773 23.7596 14.2073 24.7896 14.2073 27.1199V36.3903C14.2073 38.3829 14.4437 39.6325 14.8997 40.595H11.5562C11.1003 39.6325 10.9652 38.366 10.9652 36.3903V26.208C10.9652 25.0767 10.5599 24.6714 9.68187 24.6714H8.93889V40.595ZM8.93889 8.12304V21.6319H9.68187C10.5599 21.6319 10.9652 21.2266 10.9652 20.0784V9.55836C10.9652 8.52831 10.5599 8.12304 9.68187 8.12304H8.93889ZM16.0676 37.3191V9.49081C16.0676 6.36689 17.5029 4.93157 20.3229 4.93157C23.126 4.93157 24.5782 6.36689 24.5782 9.49081V18.1534L21.336 18.5249V9.20375C21.336 8.32568 20.9308 7.92041 20.3229 7.92041C19.715 7.92041 19.3097 8.32568 19.3097 9.20375V36.5423C19.3097 37.4204 19.6812 37.8088 20.2722 37.8088C20.8801 37.8088 21.336 37.3528 21.336 36.4072V23.4725H20.2891V20.4837H24.5782V40.595H22.1128L21.4542 38.3322H20.9477C20.745 39.9871 19.9345 40.7976 18.6005 40.7976C17.1314 40.7976 16.0676 39.7338 16.0676 37.3191ZM29.4791 40.595H26.524V5.13421H29.8168L32.6706 29.2475H33.2109C32.9745 25.9547 32.6368 20.5512 32.5861 16.279L32.4848 5.13421H35.423V40.595H32.1471L29.2933 16.4648H28.753C28.9894 19.7575 29.2933 24.5532 29.3609 29.3151L29.4791 40.595ZM43.8738 40.595H37.4571V5.13421H43.8738V8.12304H40.6992V20.4837H43.3841V23.4725H40.6992V37.6061H43.8738V40.595ZM55.6573 5.13421H58.815L57.1263 40.595H52.7697L52.2632 30.2945C52.0267 25.3975 51.9761 21.4293 51.9423 17.9507H51.402C51.3513 21.4293 51.2669 25.3975 51.0642 30.2945L50.6083 40.595H46.2348L44.5462 5.13421H47.7208L48.2949 22.4255C48.4131 26.36 48.4638 29.4333 48.5144 33.3171H49.0548L50.2537 5.13421H53.1581L54.2726 33.3171H54.813C54.8467 29.4839 54.8974 26.3938 55.0325 22.4255L55.6573 5.13421ZM59.9133 36.2384V28.8085L63.1555 28.437V36.5085C63.1555 37.4035 63.5607 37.8088 64.1686 37.8088C64.7765 37.8088 65.1818 37.4035 65.1818 36.5085V31.0206C65.1818 28.1668 63.966 25.8197 62.6995 23.3712C61.3318 20.6187 59.9133 17.765 59.9133 14.202V9.49081C59.9133 6.36689 61.3655 4.93157 64.1686 4.93157C66.9886 4.93157 68.4239 6.36689 68.4239 9.49081V16.1946L65.1818 16.583V9.20375C65.1818 8.32568 64.7765 7.92041 64.1686 7.92041C63.5607 7.92041 63.1555 8.32568 63.1555 9.20375V14.202C63.1555 16.9376 64.3713 19.2679 65.6377 21.7501C67.0055 24.4519 68.4239 27.3056 68.4239 31.0206V36.2384C68.4239 39.3454 66.9886 40.7976 64.1686 40.7976C61.3655 40.7976 59.9133 39.3454 59.9133 36.2384Z" fill="white"/>
</svg>
