<svg width="70" height="70" viewBox="0 0 70 70" fill="none" xmlns="http://www.w3.org/2000/svg">
<rect width="70" height="70" rx="5.83333" fill="#1252DE"/>
<path d="M19.8655 56.3345H15.983V13.8697H20.5935C24.4558 13.8697 26.1746 15.5885 26.1746 19.471V30.7949C26.1746 33.4439 24.9411 34.6774 22.8179 35.1425V35.7492C24.9411 36.1738 26.1746 37.4073 26.1746 40.1979V51.2994C26.1746 53.6855 26.4577 55.1819 27.0037 56.3345H22.9998C22.4539 55.1819 22.2921 53.6653 22.2921 51.2994V39.1059C22.2921 37.7511 21.8068 37.2658 20.7553 37.2658H19.8655V56.3345ZM19.8655 17.4489V33.6259H20.7553C21.8068 33.6259 22.2921 33.1406 22.2921 31.7656V19.1677C22.2921 17.9342 21.8068 17.4489 20.7553 17.4489H19.8655ZM29.6155 52.4115V19.0868C29.6155 15.3458 31.3343 13.627 34.7113 13.627C38.068 13.627 39.8071 15.3458 39.8071 19.0868V29.4603L35.9246 29.9052V18.743C35.9246 17.6915 35.4393 17.2062 34.7113 17.2062C33.9833 17.2062 33.498 17.6915 33.498 18.743V51.4814C33.498 52.5329 33.9429 52.998 34.6506 52.998C35.3786 52.998 35.9246 52.452 35.9246 51.3196V35.83H34.6709V32.2509H39.8071V56.3345H36.8548L36.0661 53.6248H35.4595C35.2168 55.6065 34.2462 56.5771 32.6487 56.5771C30.8895 56.5771 29.6155 55.3032 29.6155 52.4115ZM46.8893 56.3345H43.3506V13.8697H47.2937L50.7111 42.7457H51.3582C51.0751 38.8026 50.6707 32.3318 50.61 27.2158L50.4887 13.8697H54.0072V56.3345H50.0843L46.6669 27.4382H46.0198C46.3029 31.3814 46.6669 37.1242 46.7477 42.8266L46.8893 56.3345Z" fill="#FAFAFA"/>
</svg>
