<svg width="46" height="52" viewBox="0 0 46 52" fill="none" xmlns="http://www.w3.org/2000/svg">
<rect x="0.65625" width="44.6875" height="52" rx="2" fill="#1252DE"/>
<path d="M9.29289 45.9567V27.4696H10.1555C11.1749 27.4696 11.6454 27.9401 11.6454 29.2536V41.0751C11.6454 43.3689 11.8023 44.8392 12.3316 45.9567H16.2133C15.684 44.8392 15.4095 43.3885 15.4095 41.0751V30.3122C15.4095 27.6068 14.2136 26.4109 12.1552 25.9992V25.4111C14.2136 24.9602 15.4095 23.7643 15.4095 21.1961V10.2175C15.4095 6.45346 13.7431 4.78707 9.99865 4.78707H5.52881V45.9567H9.29289ZM9.29289 8.25708H10.1555C11.1749 8.25708 11.6454 8.72759 11.6454 9.92347V22.1371C11.6454 23.4702 11.1749 23.9407 10.1555 23.9407H9.29289V8.25708ZM17.5692 42.1534C17.5692 44.9568 18.8043 46.1919 20.5099 46.1919C22.0587 46.1919 22.9997 45.2509 23.235 43.3297H23.8231L24.5877 45.9567H27.4499V22.6076H22.4704V26.0776H23.6859V41.0947C23.6859 42.1926 23.1565 42.7219 22.4508 42.7219C21.7646 42.7219 21.3333 42.271 21.3333 41.2516V9.51178C21.3333 8.49234 21.8038 8.02183 22.5096 8.02183C23.2153 8.02183 23.6859 8.49234 23.6859 9.51178V20.3335L27.4499 19.9022V9.84505C27.4499 6.21821 25.7639 4.55182 22.5096 4.55182C19.2356 4.55182 17.5692 6.21821 17.5692 9.84505V42.1534ZM33.1399 45.9567L33.0026 32.8608C32.9242 27.3323 32.5713 21.7646 32.2969 17.9417H32.9242L36.2374 45.9567H40.0407V4.78707H36.6295L36.7471 17.7261C36.8059 22.686 37.198 28.9595 37.4725 32.7824H36.8451L33.5319 4.78707H29.7091V45.9567H33.1399Z" fill="white"/>
</svg>
